<svg width="42" height="43" viewBox="0 0 42 43" fill="none" xmlns="http://www.w3.org/2000/svg">
<path d="M38.6842 0.613281H3.31575C2.43677 0.614618 1.59417 0.964384 0.972637 1.58592C0.351103 2.20745 0.00133699 3.05005 0 3.92903V39.2975C0.00133699 40.1765 0.351103 41.0191 0.972637 41.6406C1.59417 42.2622 2.43677 42.6119 3.31575 42.6133H38.6842C39.5632 42.6119 40.4058 42.2622 41.0274 41.6406C41.6489 41.0191 41.9987 40.1765 42 39.2975V3.92903C41.9987 3.05005 41.6489 2.20745 41.0274 1.58592C40.4058 0.964384 39.5632 0.614618 38.6842 0.613281ZM7.73684 30.4554H34.2632C34.5535 30.4596 34.8306 30.5779 35.0344 30.7847C35.2382 30.9916 35.3525 31.2703 35.3525 31.5607C35.3525 31.8511 35.2382 32.1298 35.0344 32.3366C34.8305 32.5434 34.5535 32.6617 34.2631 32.6659H7.73684C7.44648 32.6617 7.16945 32.5434 6.9656 32.3366C6.76176 32.1298 6.64749 31.851 6.64749 31.5606C6.64749 31.2703 6.76176 30.9915 6.9656 30.7847C7.16945 30.5779 7.44648 30.4596 7.73684 30.4554ZM6.63158 21.6133C6.63138 21.4681 6.65984 21.3243 6.71531 21.1901C6.77079 21.0559 6.85219 20.934 6.95486 20.8313C7.05754 20.7286 7.17946 20.6472 7.31364 20.5918C7.44783 20.5363 7.59164 20.5078 7.73684 20.508H34.2632C34.5563 20.508 34.8374 20.6245 35.0447 20.8317C35.252 21.039 35.3684 21.3201 35.3684 21.6133C35.3684 21.9064 35.252 22.1875 35.0447 22.3948C34.8374 22.6021 34.5563 22.7185 34.2632 22.7185H7.73684C7.59164 22.7187 7.44783 22.6903 7.31364 22.6348C7.17946 22.5793 7.05754 22.4979 6.95486 22.3953C6.85219 22.2926 6.77079 22.1707 6.71531 22.0365C6.65984 21.9023 6.63138 21.7585 6.63158 21.6133ZM34.2632 12.7712H7.73684C7.44649 12.767 7.16945 12.6487 6.96561 12.4418C6.76178 12.235 6.64751 11.9563 6.64752 11.6659C6.64753 11.3755 6.7618 11.0968 6.96565 10.89C7.1695 10.6831 7.44654 10.5649 7.73689 10.5607H34.2632C34.5535 10.5649 34.8306 10.6832 35.0344 10.89C35.2382 11.0968 35.3525 11.3755 35.3525 11.6659C35.3525 11.9563 35.2382 12.235 35.0344 12.4418C34.8306 12.6487 34.5535 12.767 34.2632 12.7712Z" fill="url(#paint0_linear_17_98)"/>
<defs>
<linearGradient id="paint0_linear_17_98" x1="63.371" y1="43.0259" x2="13.5" y2="42.6133" gradientUnits="userSpaceOnUse">
<stop stop-color="#FEF98B"/>
<stop offset="1" stop-color="#E4B01A"/>
</linearGradient>
</defs>
</svg>
